<svg xmlns="http://www.w3.org/2000/svg" viewBox="0 0 970.8 251.4"><path fill="#FFF" d="M701.2 192.4c-3.2-5.4-7.7-9.6-13.5-12.7-5.7-3-12.3-4.5-19.6-4.5h-29.5V251h29.5c7.3 0 13.9-1.5 19.6-4.5 5.7-3 10.3-7.3 13.5-12.7 3.3-5.6 4.8-14.8 4.8-21.5 0-7.4-1.7-14.8-4.8-19.9zm-11.1 35.3c-2.1 3.5-5 6.2-8.8 8.3-3.8 2-8.4 3-13.6 3h-16.3v-51.8h16.3c5.2 0 9.7 1 13.6 3 3.8 2 6.7 4.7 8.8 8.3 1.9 3.2 3.1 8.6 3.1 13.8 0 5-1.1 12.1-3.1 15.4zm60.1-34.1l25 57.8H789l-33.5-75.7h-10.7l-33.5 75.7H725l25.2-57.8zm144.3-17.9L869 251.4h-10l-17.7-53.6-17.8 53.6h-9.9l-25.5-75.7h13.5l17.3 53.9 18-53.9h9.3l17.7 54.1 17.6-54.1zm76.3 0v75.7h-10.2l-37.4-51.2v51.2h-12.9v-75.7h10.3l37.4 51.2v-51.2z"/><g fill="#FFF"><path d="M731.2 104.1c-.2.1-.4.1-.6.2-.6.3-1.3.6-2 .9-6.1 2.5-12.9 4.3-20.1 5.2l26 37.3H762l-30.8-43.6zM107 24.5c-4.7-7.3-11.4-12.9-20.1-16.7C78.2 3.9 67.9 2 56.1 2H0v145.8h25.3V23.4h29.6c11 0 19.4 2.3 25.1 7 5.7 4.7 8.6 11.4 8.6 20 0 8.7-2.9 15.4-8.6 20-5.7 4.7-14.1 7-25.1 7h-17v21.4H56c11.8 0 22.1-1.9 30.8-5.8 8.8-3.9 15.5-9.5 20.1-16.8 4.7-7.3 7-15.9 7-25.8.1-10-2.2-18.6-6.9-25.9z"/><path d="M752.7 50.4c0 1.3 0 2.4-.1 3.7 0 .6-.1 1.1-.1 1.7l-.3 2.4c0 .5-.1 1-.2 1.5-.1.6-.2 1.2-.3 1.7-.1.6-.2 1.2-.4 1.7-.4 1.6-.8 3.1-1.4 4.6-.2.4-.3.9-.5 1.4-.4.9-.8 1.9-1.2 2.8-.2.4-.4.7-.6 1.1-.2.4-.4.8-.7 1.2-.3.5-.6 1.1-.9 1.6l-.3.6c-4.7 7.3-11.4 13-20.2 16.8-.5.3-1.1.5-1.6.7-7 2.8-14.8 4.5-23.7 5-1.8.1-3.7.1-5.5.1h-18.1V77.5h16.9c11 0 19.4-2.3 25.1-7 1-.8 1.9-1.7 2.8-2.6.2-.3.5-.6.8-1 .1-.1.2-.3.3-.4 0-.1.1-.1.1-.2l.2-.2c.1-.1.1-.2.2-.3 0-.1.1-.2.2-.3.2-.2.3-.4.4-.6.4-.5.7-1.1.9-1.6 1.8-3.6 2.7-7.9 2.7-12.8 0-8.7-2.8-15.4-8.6-20-5.7-4.6-14.1-7-25.1-7h-29.6v124.4h-25.3V2h56c9.6 0 18.2 1.3 25.8 3.9 1.1.4 2.3.8 3.4 1.2.6.2 1.1.5 1.7.7 6 2.7 11.1 6.1 15.2 10.4.4.4.7.8 1.1 1.2 1.4 1.6 2.7 3.3 3.9 5.1 4.6 7.3 7 15.9 7 25.9zm-474.2-14c-6.4-11.4-15.1-20.3-26.3-26.7C241.1 3.2 228.6 0 214.7 0s-26.4 3.2-37.5 9.7c-11.2 6.4-19.9 15.4-26.3 26.9-6.4 11.5-9.5 24.3-9.5 38.4 0 14.2 3.2 27 9.5 38.4 6.3 11.4 15.1 20.4 26.3 26.9 11.2 6.4 23.7 9.7 37.5 9.7s26.4-3.2 37.6-9.7c11.2-6.5 19.9-15.4 26.3-26.8 6.3-11.4 9.5-24.2 9.5-38.5s-3.2-27.1-9.6-38.6zm-22.1 64.9c-4.2 7.8-9.9 13.9-17.1 18.3-7.3 4.4-15.4 6.6-24.5 6.6s-17.3-2.2-24.5-6.6c-7.3-4.4-13-10.5-17.1-18.3-4.2-7.9-6.2-16.6-6.2-26.4s2.1-18.5 6.2-26.3c4.2-7.9 9.9-14 17.1-18.3 7.2-4.4 15.4-6.6 24.5-6.6s17.3 2.2 24.5 6.6c7.3 4.4 13 10.5 17.1 18.3 4.1 7.9 6.2 16.6 6.2 26.3s-2.1 18.6-6.2 26.4zm95.2 25.1V1.9h-25.3v145.8h96.5v-21.4h-71.2zM468.4 108l-17.9 39.8h27.9l13.8-32.7-23.8-7.1zM541 1.9h-24.9l-39.2 87.2 29.9-8.9 21.6-51.4 21.7 51.4 30.3 8.9L541 1.9zM588.9 108l-24.2 7.1 13.9 32.7h28.3l-18-39.8zM795.6 1.9v145.8h25.3V1.9h-25.3zm168.3 82.2c-4.6-5.5-10.2-9.7-16.6-12.4-6.5-2.7-14.8-5.3-24.9-7.8-7.4-1.9-13.2-3.7-17.5-5.2-4.3-1.5-7.8-3.6-10.6-6.2s-4.2-6-4.2-10.2c0-6 2.4-10.8 7.3-14.4 4.9-3.6 12.3-5.4 22.3-5.4 6.1 0 12.4 1 18.9 2.9 6.5 1.9 12.7 4.8 18.7 8.5l8-21c-5.8-4.2-12.8-7.4-20.8-9.6-8.2-2.2-16.4-3.3-24.7-3.3-12 0-22 2-30.3 5.8-8.2 3.9-14.4 9.1-18.5 15.7s-6.1 13.9-6.1 22c0 9.6 2.3 17.2 6.9 22.8 4.6 5.6 10.1 9.7 16.5 12.4 6.4 2.6 14.8 5.3 25.2 7.9 7.4 1.9 13.2 3.7 17.5 5.2 4.3 1.5 7.8 3.6 10.6 6.3 2.8 2.7 4.2 6.1 4.2 10.3 0 5.7-2.5 10.3-7.5 13.8s-12.6 5.2-22.7 5.2c-8.2 0-16.3-1.5-24.4-4.5-8.1-3-14.9-6.8-20.5-11.5l-8.8 21c5.7 5.3 13.5 9.5 23.3 12.7 9.8 3.2 19.9 4.8 30.4 4.8 11.9 0 22-1.9 30.3-5.8s14.5-9.1 18.6-15.6c4.1-6.5 6.1-13.8 6.1-21.9.2-9.4-2.1-16.9-6.7-22.5z"/></g><path fill="#006BED" d="M575.8 100.5c-35.4 6.1-40.9 11.7-47.1 47.1-.1.3-.6.3-.6 0-6.1-35.4-11.7-40.9-47.1-47.1-.3-.1-.3-.6 0-.6 35.4-6.1 40.9-11.7 47.1-47.1.1-.3.6-.3.6 0 6.1 35.4 11.7 40.9 47.1 47.1.3 0 .3.5 0 .6z"/></svg>